<svg width="23" height="22" viewBox="0 0 23 22" fill="none" xmlns="http://www.w3.org/2000/svg">
<path d="M23.0002 11C23.0002 6.19668 19.8185 2.12669 15.3335 0.623352V21.3767C19.8185 19.8734 23.0002 15.8034 23.0002 11Z" fill="#ED4C5C"/>
<path d="M0 11C0 15.8034 3.22 19.8734 7.66667 21.3767V0.623352C3.22 2.12669 0 6.19668 0 11Z" fill="#3E4347"/>
<path d="M15.3334 0.623333C14.1451 0.22 12.8417 0 11.5001 0C10.1584 0 8.85508 0.22 7.66675 0.623333V21.3767C8.85508 21.78 10.1584 22 11.5001 22C12.8417 22 14.1451 21.78 15.3334 21.3767V0.623333Z" fill="#FFE62E"/>
</svg>
